<svg width="250" height="250" viewBox="0 0 250 250" fill="none" xmlns="http://www.w3.org/2000/svg">
<circle cx="125" cy="125" r="125" fill="#1ECF5F"/>
<ellipse cx="63.6473" cy="103.647" rx="53.6818" ry="33.5006" transform="rotate(45 63.6473 103.647)" fill="black"/>
<path d="M224.252 66.0421C230.628 72.4174 232.311 82.3846 229.751 93.444C227.193 104.495 220.409 116.556 209.982 126.982C199.556 137.409 187.495 144.193 176.444 146.751C165.385 149.311 155.417 147.628 149.042 141.252C142.667 134.877 140.983 124.91 143.543 113.851C146.101 102.799 152.886 90.7388 163.312 80.3123C173.739 69.8858 185.799 63.1013 196.851 60.5432C207.91 57.9832 217.877 59.6668 224.252 66.0421Z" fill="black" stroke="black"/>
<circle cx="124.5" cy="149.5" r="48" fill="black" stroke="#1ECF5F" stroke-width="5"/>
</svg>
